<svg version="1.1" id="Layer_1" xmlns="http://www.w3.org/2000/svg" xmlns:xlink="http://www.w3.org/1999/xlink" x="0px" y="0px"
	 width="100%" viewBox="0 0 400 400" enable-background="new 0 0 400 400" xml:space="preserve">
<path fill="#C74634" opacity="1.000000" stroke="none" 
	d="
M189.000000,401.000000 
	C126.019531,401.000000 63.539055,401.000000 1.029292,401.000000 
	C1.029292,267.727875 1.029292,134.455719 1.029292,1.091781 
	C134.230438,1.091781 267.460938,1.091781 400.845734,1.091781 
	C400.845734,134.333191 400.845734,267.666565 400.845734,401.000000 
	C330.455780,401.000000 259.977905,401.000000 189.000000,401.000000 
M126.910362,285.688171 
	C136.479523,286.692413 146.039948,288.451569 155.619446,288.562622 
	C187.264648,288.929413 218.917175,288.782867 250.565887,288.628296 
	C256.526703,288.599182 262.560699,288.064728 268.428802,287.020844 
	C311.374115,279.381439 343.026337,238.616196 339.712311,195.465118 
	C336.196747,149.689316 299.971497,113.921783 255.295624,113.170433 
	C218.992737,112.559891 182.663834,112.565933 146.360367,113.155243 
	C101.233032,113.887794 63.125435,152.466995 62.028812,197.552200 
	C61.024208,238.854355 86.276855,273.461334 126.910362,285.688171 
z"/>
<path fill="#FFFEFE" opacity="1.000000" stroke="none" 
	d="
M126.526733,285.552246 
	C86.276855,273.461334 61.024208,238.854355 62.028812,197.552200 
	C63.125435,152.466995 101.233032,113.887794 146.360367,113.155243 
	C182.663834,112.565933 218.992737,112.559891 255.295624,113.170433 
	C299.971497,113.921783 336.196747,149.689316 339.712311,195.465118 
	C343.026337,238.616196 311.374115,279.381439 268.428802,287.020844 
	C262.560699,288.064728 256.526703,288.599182 250.565887,288.628296 
	C218.917175,288.782867 187.264648,288.929413 155.619446,288.562622 
	C146.039948,288.451569 136.479523,286.692413 126.526733,285.552246 
M262.456543,256.136902 
	C291.439972,248.858780 309.466827,222.759659 305.928589,193.198380 
	C302.584106,165.255798 277.953369,144.015259 248.849426,144.003860 
	C216.525177,143.991196 184.200836,143.949234 151.876724,144.016098 
	C121.384918,144.079178 96.375595,168.182892 95.168488,198.531021 
	C93.892487,230.611267 119.521713,257.515472 151.778168,257.662720 
	C184.434967,257.811798 217.093140,257.741333 249.750275,257.635956 
	C253.714157,257.623169 257.675415,256.795898 262.456543,256.136902 
z"/>
<path fill="#C74735" opacity="1.000000" stroke="none" 
	d="
M262.047211,256.241516 
	C257.675415,256.795898 253.714157,257.623169 249.750275,257.635956 
	C217.093140,257.741333 184.434967,257.811798 151.778168,257.662720 
	C119.521713,257.515472 93.892487,230.611267 95.168488,198.531021 
	C96.375595,168.182892 121.384918,144.079178 151.876724,144.016098 
	C184.200836,143.949234 216.525177,143.991196 248.849426,144.003860 
	C277.953369,144.015259 302.584106,165.255798 305.928589,193.198380 
	C309.466827,222.759659 291.439972,248.858780 262.047211,256.241516 
z"/>
</svg>